<?xml version="1.0" encoding="UTF-8" standalone="no"?>
<svg
   xmlns:dc="http://purl.org/dc/elements/1.1/"
   xmlns:cc="http://creativecommons.org/ns#"
   xmlns:rdf="http://www.w3.org/1999/02/22-rdf-syntax-ns#"
   xmlns:svg="http://www.w3.org/2000/svg"
   xmlns="http://www.w3.org/2000/svg"
   width="99.366249mm"
   height="70.022514mm"
   viewBox="0 0 99.366251 70.022517"
   version="1.1"
   id="svg8">
  <path
     d="M 99.300108,2.4897288 V 0.26722884 h -1.5875 V 2.4897288 l 0.43392,3.27025 h 0.70908 l 0.4445,-3.27025 m 0,5.461 v -1.545166 h -1.5875 v 1.545166 h 1.5875 m -5.83125,-2.645833 -0.18174,-1.324901 -0.52602,-0.995495 -0.841541,-0.626401 -1.128282,-0.21762 -1.105462,0.203564 -0.832611,0.591509 -0.525032,0.950681 -0.182728,1.28108 0.180743,1.222209 0.51908,0.903718 0.822688,0.56042 1.091572,0.192319 0.907521,-0.108479 0.772583,-0.322792 0.59399,-0.533135 0.371739,-0.73951 h -1.4605 l -0.411427,0.440531 -0.720989,0.130969 -0.473935,-0.06697 -0.364794,-0.230683 -0.241763,-0.439043 -0.104841,-0.692051 h 3.831169 l 0.0106,-0.179917 m -1.545166,-0.804333 h -2.275417 l 0.350573,-0.91149 0.332549,-0.235975 0.438712,-0.0802 0.43772,0.07722 0.349415,0.231015 0.244243,0.383811 0.122205,0.535616 v 0 m -4.75558,3.450166 V 0.23547884 H 85.686465 V 7.9507288 h 1.481667 m -2.585803,-2.8575 -0.163876,-1.175742 -0.472447,-0.935633 -0.752244,-0.618133 -1.003267,-0.223242 -0.928687,0.232834 -0.658813,0.709083 v -0.846667 h -1.481666 v 8.0221672 h 1.481666 V 7.1887288 l 0.658813,0.66675 0.928687,0.1905 0.954154,-0.217289 0.757701,-0.608211 0.499732,-0.933648 0.180247,-1.193602 v 0 m -1.481667,0.02117 -0.09244,0.702138 -0.258134,0.533466 -0.395056,0.338997 -0.503204,0.118732 -0.50767,-0.117574 -0.39456,-0.338832 -0.255653,-0.539254 -0.09095,-0.71884 0.09095,-0.71884 0.255653,-0.539254 0.39456,-0.338832 0.50767,-0.117574 0.512134,0.117905 0.394064,0.341147 0.253173,0.545538 0.08946,0.731077 v 0 m -5.339622,2.83633 v -4.042833 l -0.123693,-0.744968 -0.357849,-0.555459 -0.572161,-0.347101 -0.76663,-0.119889 -0.939271,0.201083 -0.732896,0.645584 -0.615157,-0.62574 -0.940593,-0.220927 -0.846667,0.183885 -0.719666,0.620449 V 2.2357288 H 69.67537 v 5.715 h 1.481667 v -3.429 l 0.06945,-0.469966 0.200422,-0.352888 0.319484,-0.221919 0.426641,-0.07706 0.588698,0.19976 0.215635,0.541073 v 3.81 h 1.481667 v -3.429 l 0.06945,-0.469966 0.200422,-0.352888 0.319484,-0.221919 0.426641,-0.07706 0.588698,0.19976 0.215635,0.541073 v 3.81 h 1.481667 m -9.066104,0 v -0.179916 l -0.268552,-0.329407 -0.07011,-0.369093 v -3.175 l -0.148167,-0.765638 -0.441854,-0.549342 -0.731573,-0.33106 -1.017323,-0.110794 -1.020465,0.123197 -0.745629,0.370251 -0.473769,0.618299 -0.204887,0.867337 h 1.42875 l 0.277811,-0.613834 0.769939,-0.169333 0.642938,0.142875 0.214312,0.428625 -0.08103,0.340816 -0.233825,0.171153 -0.870479,0.154781 -0.592667,0.105833 -0.740668,0.208525 -0.525363,0.340486 -0.313035,0.497251 -0.103684,0.678822 0.137253,0.725124 0.373393,0.511803 0.551987,0.303444 0.673034,0.100045 0.911489,-0.205052 0.824178,-0.609864 0.169333,0.719666 h 1.608666 m -1.788583,-2.44475 -0.07789,0.571665 -0.227707,0.421846 -0.368597,0.261111 -0.500559,0.08946 -0.588698,-0.148167 -0.215635,-0.465667 0.193146,-0.473604 0.653521,-0.235479 0.508,-0.09525 0.624416,-0.179917 v 0.254 m -3.882762,2.444752 -1.904999,-2.878666 1.862666,-2.836334 h -1.778 l -0.92075,1.725084 -0.931333,-1.725084 h -1.778 l 1.862667,2.836334 -1.905,2.878666 h 1.778 l 0.973666,-1.778 0.963084,1.778 h 1.777999 m -5.790239,-2.645833 -0.181736,-1.324901 -0.526024,-0.995495 -0.841541,-0.626401 -1.128282,-0.21762 -1.105462,0.203564 -0.832611,0.591509 -0.525033,0.950681 -0.182728,1.28108 0.180744,1.222209 0.519079,0.903718 0.822689,0.56042 1.091572,0.192319 0.907521,-0.108479 0.772583,-0.322792 0.59399,-0.533135 0.371739,-0.73951 h -1.4605 l -0.411427,0.440531 -0.72099,0.130969 -0.473935,-0.06697 -0.364794,-0.230683 -0.241763,-0.439043 -0.104841,-0.692051 h 3.831167 l 0.01058,-0.179917 m -1.545167,-0.804333 h -2.275416 l 0.350573,-0.91149 0.332548,-0.235975 0.438712,-0.0802 0.43772,0.07722 0.349415,0.231015 0.244244,0.383811 0.122204,0.535616 v 0 m -7.63769,3.450166 v -3.831166 l -0.128158,-0.840548 -0.373227,-0.621275 -0.601431,-0.385135 -0.812767,-0.132126 -0.988218,0.22225 -0.726282,0.6985 v -0.8255 h -1.481666 v 5.715 H 44.4204 v -3.429 l 0.08566,-0.461036 0.242424,-0.35388 0.377362,-0.226881 0.490472,-0.08004 0.416719,0.06515 0.297656,0.194138 0.178594,0.321138 0.05953,0.446153 v 3.52425 h 1.481666 m -6.123946,8e-6 v -0.179916 l -0.268552,-0.329407 -0.07012,-0.369093 v -3.175 l -0.148167,-0.765638 -0.441854,-0.549342 -0.731572,-0.33106 -1.017323,-0.110794 -1.020465,0.123197 -0.745629,0.370251 -0.473769,0.618299 -0.204887,0.867337 h 1.42875 l 0.277811,-0.613834 0.769939,-0.169333 0.642937,0.142875 0.214313,0.428625 -0.08103,0.340816 -0.233825,0.171153 -0.87048,0.154781 -0.592666,0.105833 -0.740668,0.208525 -0.525363,0.340486 -0.313035,0.497251 -0.103684,0.678822 0.137252,0.725124 0.373394,0.511803 0.551986,0.303444 0.673034,0.100045 0.91149,-0.205052 0.824177,-0.609864 0.169333,0.719666 h 1.608667 m -1.788583,-2.44475 -0.07789,0.571665 -0.227707,0.421846 -0.368598,0.261111 -0.500558,0.08946 -0.588698,-0.148167 -0.215636,-0.465667 0.193146,-0.473604 0.653521,-0.235479 0.508,-0.09525 0.624417,-0.179917 v 0.254 m -7.080077,0.751419 v -0.07408 l -0.06962,-0.458887 -0.209517,-0.386457 -0.350407,-0.305097 -0.492291,-0.214809 -1.87325,-0.53975 -0.414073,-0.178594 -0.10451,-0.265906 0.234156,-0.383646 0.623094,-0.145521 0.796396,0.191823 0.200752,0.241267 0.07177,0.339493 h 1.42875 l -0.181737,-0.811609 -0.494275,-0.609203 -0.77804,-0.382985 -1.033032,-0.132953 -0.978793,0.132457 -0.739676,0.379512 -0.467816,0.599777 -0.163215,0.793254 0.0463,0.468478 0.18124,0.37422 0.379677,0.304767 0.641615,0.260119 1.767416,0.550333 0.387615,0.179917 0.109802,0.211666 -0.07524,0.223408 -0.217124,0.150978 -0.808302,0.112448 -0.788458,-0.140229 -0.235479,-0.225888 -0.140229,-0.374717 H 27.86145 l 0.195459,0.824508 0.518915,0.596305 0.836414,0.362148 1.147962,0.122039 1.068917,-0.117243 0.783167,-0.344455 0.481541,-0.560751 0.164042,-0.766134 v -3e-6 m -6.247803,1.693333 v -5.715 h -1.481667 v 5.715 h 1.481667 m 0.02117,-6.402916 V 0.06614584 H 25.349568 V 1.5478128 h 1.481666 m -5.534921,4.709583 v -0.07408 l -0.06962,-0.458887 -0.209516,-0.386457 -0.350408,-0.305097 -0.49229,-0.214809 -1.87325,-0.53975 -0.414073,-0.178594 -0.104511,-0.265906 0.234156,-0.383646 0.623094,-0.145521 0.796396,0.191823 0.200753,0.241267 0.07177,0.339493 h 1.42875 l -0.181737,-0.811609 -0.494275,-0.609203 -0.778039,-0.382985 -1.033032,-0.132953 -0.978793,0.132457 -0.739676,0.379512 -0.467816,0.599777 -0.163215,0.793254 0.0463,0.468478 0.18124,0.37422 0.379677,0.304767 0.641614,0.260119 1.767417,0.550333 0.387614,0.179917 0.109802,0.211666 -0.07524,0.223408 -0.217124,0.150978 -0.808301,0.112448 -0.788459,-0.140229 -0.235479,-0.225888 -0.140229,-0.374717 h -1.449917 l 0.19546,0.824508 0.518914,0.596305 0.836415,0.362148 1.147961,0.122039 1.068917,-0.117243 0.783167,-0.344455 0.481541,-0.560751 0.164042,-0.766134 v -3e-6 m -6.247805,1.693333 v -5.715 h -1.481667 v 5.715 h 1.481667 m 0.02117,-6.402916 V 0.06614584 h -1.48167 V 1.5478128 h 1.48167 m -2.956226,6.402916 v -3.831166 l -0.139237,-0.871802 -0.387284,-0.617803 -0.58969,-0.367771 -0.746456,-0.121708 -0.9551466,0.226219 -0.71702,0.694531 V 0.23547884 H 7.0969514 V 7.9507288 h 1.481667 v -3.429 l 0.08483,-0.452106 0.236637,-0.354873 0.361652,-0.231841 0.459879,-0.08301 0.3654556,0.05672 0.288065,0.182728 0.188847,0.327587 0.0678,0.491298 v 3.4925 h 1.481667 M 6.2468124,1.5583958 V 0.23547884 H 0.06614584 V 1.5583958 H 2.4050624 v 6.392333 h 1.5875 v -6.392333 h 2.25425"
     style="fill:none;stroke:#000000;stroke-width:0.13229167px;stroke-opacity:1"
     id="polyline2597" />
  <path
     style="fill:none;stroke:#000000;stroke-width:0.26458332"
     d="m 47.625957,69.878112 -0.268567,-0.924354 -0.19232,-2.635846 -0.124379,-9.692536 0.245455,-13.227764 0.54952,-13.218624 0.706341,-9.667565 0.350296,-2.619535 0.323604,-0.906553"
     id="path1979" />
  <path
     style="fill:none;stroke:#000000;stroke-width:0.26458332"
     d="m 43.573452,69.44221 -0.829627,-0.391298 -0.720735,-0.829275 -0.606329,-1.243579 -0.486404,-1.63421 -0.36096,-2.001169 -0.229998,-2.344454 -0.04504,-5.624074 0.517568,-6.45086 1.023939,-6.718802 1.465056,-6.636592 1.840914,-6.204233 2.06793,-5.230287 1.05908,-2.104213 1.057591,-1.736799 1.042428,-1.349288 1.013587,-0.941681 0.971073,-0.513979 0.914885,-0.06618"
     id="path1981" />
  <path
     style="fill:none;stroke:#000000;stroke-width:0.26458332"
     d="m 39.185487,68.225874 -1.384137,-0.763864 -1.182616,-1.169553 -0.972742,-1.548374 -0.754517,-1.90033 -0.527942,-2.225421 -0.293016,-2.523643 -0.04974,-2.795002 0.201891,-3.039494 0.451613,-3.19477 0.683499,-3.250929 0.899846,-3.265365 1.100651,-3.238078 1.285915,-3.169069 1.455639,-3.058341 1.609822,-2.905887 1.748462,-2.711714 1.835751,-2.430905 1.866114,-2.081376 1.872587,-1.716989 1.855168,-1.337748 1.813858,-0.943649 1.748654,-0.534696 1.659558,-0.110886 1.546572,0.32778"
     id="path1983" />
  <path
     style="fill:none;stroke:#000000;stroke-width:0.26458332"
     d="m 34.205663,65.746954 -1.674481,-1.342556 -1.378071,-1.687894 -1.073826,-2.001845 -0.761741,-2.284411 -0.44182,-2.535587 -0.114062,-2.755378 0.221535,-2.943783 0.564967,-3.100799 0.896905,-3.165225 1.196177,-3.132949 1.471525,-3.063121 1.722957,-2.955744 1.950465,-2.810817 2.154054,-2.628338 2.333721,-2.408308 2.489469,-2.150728 2.571387,-1.822668 2.574247,-1.445055 2.545351,-1.061276 2.484697,-0.671334 2.392286,-0.275229 2.268115,0.127041 2.112188,0.535475 1.924501,0.950071"
     id="path1985" />
  <path
     style="fill:none;stroke:#000000;stroke-width:0.26458332"
     d="m 28.64024,61.00351 -1.524944,-2.066989 -1.136811,-2.308415 -0.746629,-2.514016 -0.354398,-2.683791 0.03988,-2.817742 0.436206,-2.915867 0.834582,-2.978169 1.235004,-3.004645 1.604317,-2.939256 1.918965,-2.786169 2.200328,-2.603515 2.448405,-2.391291 2.663196,-2.149499 2.844702,-1.878139 2.992921,-1.577211 3.107855,-1.246711 3.129262,-0.872265 3.055776,-0.477754 2.946956,-0.0895 2.802803,0.2925 2.623315,0.668242 2.408495,1.03773 2.15834,1.400959 1.872851,1.757934"
     id="path1987" />
  <path
     style="fill:none;stroke:#000000;stroke-width:0.26458332"
     d="m 23.611363,52.625677 -0.757655,-2.714102 -0.305736,-2.791101 0.136045,-2.831394 0.567688,-2.834981 0.989192,-2.801862 1.400558,-2.732037 1.801788,-2.625507 2.192877,-2.48227 2.523268,-2.260318 2.771887,-1.973812 2.978757,-1.671833 3.143878,-1.354382 3.267253,-1.021462 3.34888,-0.673069 3.388758,-0.309207 3.386887,0.07013 3.280923,0.453784 3.077622,0.817289 2.842712,1.159562 2.576191,1.480599 2.27806,1.780401 1.948321,2.058967 1.586971,2.3163 1.19401,2.552397"
     id="path1989" />
  <path
     style="fill:none;stroke:#000000;stroke-width:0.26458332"
     d="m 22.072355,41.024249 0.337401,-2.191434 0.594826,-2.10372 0.838014,-2.00638 1.066969,-1.899417 1.28169,-1.782828 1.482175,-1.656615 1.668428,-1.520778 1.840445,-1.375315 1.998229,-1.22023 2.141779,-1.055517 2.271094,-0.881182 2.386175,-0.697222 2.487022,-0.503637 2.573634,-0.300429 2.646013,-0.08759 2.704157,0.134865 2.594596,0.343424 2.531568,0.546442 2.451798,0.742027 2.355285,0.930176 2.24203,1.110895 2.112033,1.284181 1.965292,1.450031 1.80181,1.60845 1.605843,1.740955 1.384643,1.842642 1.157577,1.92954 0.924647,2.001654 0.685852,2.058975 0.44119,2.101511 0.190665,2.129259 -0.06573,2.142218"
     id="path1991" />
  <path
     style="fill:none;stroke:#000000;stroke-width:0.26458332"
     d="m 25.399752,30.390679 1.157681,-1.766496 1.357671,-1.583235 1.54098,-1.397511 1.707612,-1.20933 1.857564,-1.018686 1.990837,-0.825583 2.107432,-0.630019 2.207348,-0.431994 2.290585,-0.231511 2.357143,-0.02857 2.407023,0.176839 2.440223,0.384705 2.456746,0.595031 2.456588,0.807817 2.439752,1.023064 2.406238,1.24077 2.301326,1.425971 2.131825,1.566645 1.955859,1.691747 1.77343,1.80128 1.584534,1.89524 1.389176,1.973632 1.187351,2.036451 0.979064,2.083702 0.76431,2.115381 0.543093,2.131488 0.31541,2.132027 0.08126,2.116993 -0.159348,2.08639 -0.406424,2.040216 -0.659965,1.978471 -0.91997,1.901154"
     id="path1993" />
  <path
     style="fill:none;stroke:#000000;stroke-width:0.26458332"
     d="m 30.905743,23.600894 1.483454,-1.127979 1.618204,-0.894314 1.737299,-0.664569 1.840743,-0.438743 1.928535,-0.216837 2.000672,0.0012 2.057158,0.215218 2.097992,0.425367 2.123172,0.631596 2.1327,0.833906 2.126577,1.032296 2.104799,1.226767 2.067371,1.41732 2.014289,1.603951 1.945555,1.786665 1.861167,1.965459 1.720485,2.089715 1.532635,2.151368 1.34283,2.197004 1.151071,2.226624 0.957353,2.240226 0.761682,2.237812 0.564055,2.219381 0.364472,2.184934 0.162933,2.134469 -0.04056,2.067988 -0.246012,1.985489 -0.453417,1.886975 -0.662779,1.772443 -0.874096,1.641895 -1.087368,1.495329 -1.302598,1.332747"
     id="path1995" />
  <path
     style="fill:none;stroke:#000000;stroke-width:0.26458332"
     d="m 36.280035,19.923381 1.333058,-0.542743 1.428108,-0.30579 1.511407,-0.07086 1.582961,0.162052 1.642766,0.392941 1.690824,0.621811 1.727135,0.848657 1.751698,1.073482 1.74654,1.28222 1.711852,1.467146 1.665701,1.638464 1.608089,1.796176 2.997504,4.011052 2.629526,4.478609 2.129738,4.736724 1.535472,4.76612 0.533735,2.351026 0.371785,2.306708 0.205374,2.245166 0.0345,2.166403 -0.13869,2.049775 -0.307797,1.899599 -0.471751,1.738673 -0.630554,1.566998 -0.784204,1.384576 -0.932702,1.191403 -1.076047,0.987482 -1.21424,0.772811"
     id="path1997" />
  <path
     style="fill:none;stroke:#000000;stroke-width:0.26458332"
     d="m 40.998904,18.035719 1.004058,-0.151122 1.050311,0.110754 1.088087,0.361252 1.117383,0.600373 1.138203,0.828115 1.150543,1.04448 2.304189,2.69254 2.251809,3.421465 2.131599,4.059366 1.943561,4.606243 1.687694,5.062098 1.3039,5.174262 0.842821,4.927938 0.389877,4.568386 -0.05493,4.095613 -0.491598,3.509616 -0.407008,1.499677 -0.513125,1.310718 -0.618224,1.107607 -0.722306,0.890343 -0.82537,0.658925 -0.92742,0.413356"
     id="path1999" />
  <path
     style="fill:none;stroke:#000000;stroke-width:0.26458332"
     d="m 45.218908,17.16786 0.457871,0.0746 0.481138,0.327799 1.016866,1.388073 1.064294,2.319537 1.081295,3.196793 1.046411,3.932033 0.962246,4.470336 0.851564,4.87205 0.714359,5.137175 0.540843,5.15833 0.343957,4.933937 0.139999,4.570582 -0.07103,4.068269 -0.281548,3.362947 -0.475818,2.507303 -0.653576,1.591729 -0.388286,0.433798 -0.426534,0.182429"
     id="path2001" />
  <path
     id="path2005"
     d="m 52.570096,69.563662 -2.060222,0.242524 -2.088943,0.08084 -2.088942,-0.08084 -2.060222,-0.242524"
     style="fill:none;stroke:#000000;stroke-width:0.26458332" />
  <path
     id="path2007"
     d="m 61.777927,66.271733 -2.864757,1.370879 -3.248833,1.009505 -3.531287,0.623654 -3.712119,0.213324 -3.712119,-0.213324 -3.531287,-0.623654 -3.248833,-1.009505 -2.864757,-1.370879"
     style="fill:none;stroke:#000000;stroke-width:0.26458332" />
  <path
     id="path2009"
     d="m 66.849255,62.417496 -1.587047,1.332539 -1.852533,1.187137 -2.087631,1.031789 -2.292344,0.866495 -2.46667,0.691255 -2.610609,0.506067 -2.724162,0.310935 -2.807328,0.105855 -2.807328,-0.105855 -2.724162,-0.310935 -2.610609,-0.506067 -2.46667,-0.691255 -2.292344,-0.866495 -2.087631,-1.031789 -1.852533,-1.187137 -1.587047,-1.332539"
     style="fill:none;stroke:#000000;stroke-width:0.26458332" />
  <path
     id="path2011"
     d="m 70.444058,58.095819 -1.546651,1.877641 -1.991124,1.691253 -2.385681,1.48515 -2.730321,1.259332 -3.025044,1.0138 -3.26985,0.748551 -3.464741,0.463588 -3.609715,0.158911 -3.609715,-0.158911 -3.464741,-0.463588 -3.26985,-0.748551 -3.025044,-1.0138 -2.730321,-1.259332 -2.385681,-1.48515 -1.991124,-1.691253 -1.546651,-1.877641"
     style="fill:none;stroke:#000000;stroke-width:0.26458332" />
  <path
     id="path2013"
     d="m 72.924403,53.413095 -0.585094,1.201458 -0.75196,1.152695 -1.969645,2.14323 -2.532496,1.900571 -3.025604,1.626178 -3.448971,1.320048 -3.802596,0.982184 -4.086481,0.612582 -4.300624,0.211247 -4.300624,-0.211247 -4.086481,-0.612582 -3.802597,-0.982183 -3.448972,-1.320049 -3.025604,-1.626177 -2.532495,-1.900572 -1.969646,-2.14323 -0.75196,-1.152695 -0.585094,-1.201458"
     style="fill:none;stroke:#000000;stroke-width:0.26458332" />
  <path
     id="path2015"
     d="m 74.392316,48.484614 -0.388706,1.400197 -0.605128,1.35116 -0.810445,1.296426 -1.004659,1.235991 -1.187767,1.16986 -1.359771,1.09803 -3.191135,1.957773 -3.745895,1.602069 -4.211819,1.200778 -4.588905,0.753897 -4.877155,0.26143 -4.877155,-0.26143 -4.588905,-0.753897 -4.211819,-1.200778 -3.745895,-1.602069 -3.191135,-1.957773 -1.359771,-1.09803 -1.187767,-1.16986 -1.004659,-1.235991 -0.810445,-1.296426 -0.605128,-1.35116 -0.388706,-1.400197"
     style="fill:none;stroke:#000000;stroke-width:0.26458332" />
  <path
     id="path2017"
     d="m 74.879265,43.431723 -0.232677,2.010323 -0.683191,1.949592 -1.111443,1.866744 -1.517434,1.761779 -1.901163,1.634697 -2.262633,1.485497 -2.60184,1.314181 -2.918786,1.120747 -3.151463,0.889576 -3.285031,0.635411 -3.374076,0.381247 -3.418598,0.127082 -3.418597,-0.127082 -3.374076,-0.381247 -3.285031,-0.635411 -3.151463,-0.889576 -2.918786,-1.120747 -2.60184,-1.314181 -2.262632,-1.485498 -1.901164,-1.634697 -1.517434,-1.761779 -1.111443,-1.866744 -0.68319,-1.949592 -0.232677,-2.010323"
     style="fill:none;stroke:#000000;stroke-width:0.26458332" />
  <path
     id="path2019"
     d="m 74.392316,38.378831 0.148988,2.133335 -0.371781,2.092371 -0.86909,2.023513 -1.342941,1.926764 -1.793331,1.802121 -2.220262,1.649587 -2.623734,1.469161 -3.003745,1.260841 -3.284911,1.003961 -3.446877,0.717115 -3.554856,0.430269 -3.608844,0.143423 -3.608844,-0.143423 -3.554856,-0.430269 -3.446877,-0.717115 -3.284911,-1.003961 -3.003745,-1.260841 -2.623734,-1.46916 -2.220262,-1.649587 -1.793332,-1.802122 -1.34294,-1.926763 -0.869091,-2.023513 -0.371782,-2.092371 0.148988,-2.133335"
     style="fill:none;stroke:#000000;stroke-width:0.26458332" />
  <path
     id="path2021"
     d="m 72.924403,33.450351 0.58716,2.179778 0.0056,2.167886 -0.552851,2.121902 -1.088216,2.041825 -1.600489,1.927654 -2.08967,1.77939 -2.555758,1.597033 -2.998752,1.380584 -3.329453,1.10337 -3.520744,0.788121 -3.648272,0.472873 -3.712037,0.157624 -3.712036,-0.157624 -3.648272,-0.472873 -3.520745,-0.788122 -3.329452,-1.10337 -2.998752,-1.380584 -2.555757,-1.597033 -2.08967,-1.77939 -1.600489,-1.927654 -1.088216,-2.041824 -0.55285,-2.121902 0.0056,-2.167886 0.58716,-2.179778"
     style="fill:none;stroke:#000000;stroke-width:0.26458332" />
  <path
     id="path2023"
     d="m 70.444058,28.767627 0.621885,1.063586 0.461593,1.075892 0.303871,1.083084 0.148717,1.085157 -0.0039,1.082116 -0.153885,1.073956 -0.747543,2.102971 -1.316785,2.008938 -1.865477,1.873974 -2.393621,1.698078 -2.901215,1.481249 -3.2843,1.189293 -3.507071,0.849494 -3.655586,0.509697 -3.729842,0.169899 -3.729843,-0.169898 -3.655585,-0.509697 -3.507072,-0.849495 -3.2843,-1.189292 -2.901215,-1.48125 -2.393622,-1.698077 -1.865477,-1.873974 -1.316786,-2.008938 -0.747543,-2.102971 -0.153884,-1.073957 -0.0039,-1.082115 0.148718,-1.085158 0.303871,-1.083083 0.461593,-1.075893 0.621885,-1.063586"
     style="fill:none;stroke:#000000;stroke-width:0.26458332" />
  <path
     id="path2025"
     d="m 66.849255,24.44595 1.654123,1.993461 0.576276,1.032252 0.411497,1.047762 0.248529,1.057145 0.08737,1.060398 -0.07198,1.057523 -0.229518,1.04852 -0.924417,2.045519 -1.532859,1.935968 -2.126825,1.77739 -2.706313,1.569787 -3.150155,1.268438 -3.41021,0.906027 -3.58358,0.543616 -3.670265,0.181206 -3.670264,-0.181206 -3.58358,-0.543616 -3.41021,-0.906027 -3.150155,-1.268438 -2.706313,-1.569787 -2.126825,-1.777391 -1.532859,-1.935967 -0.924416,-2.045519 -0.229518,-1.04852 -0.07198,-1.057524 0.08737,-1.060397 0.248529,-1.057145 0.411497,-1.047762 0.576276,-1.032252 1.654123,-1.993461"
     style="fill:none;stroke:#000000;stroke-width:0.26458332" />
  <path
     id="path2027"
     d="m 61.777927,20.591713 2.359658,1.688834 0.924169,0.91505 0.753843,0.952092 0.583601,0.9816 0.413446,1.003572 0.243374,1.018012 0.07339,1.024914 -0.09651,1.024284 -0.266329,1.016119 -0.436061,1.000418 -0.605706,0.977184 -0.775268,0.946413 -0.944744,0.90811 -2.397575,1.671169 -2.928781,1.364474 -3.244029,0.974624 -3.454193,0.584774 -3.559276,0.194925 -3.559275,-0.194925 -3.454194,-0.584774 -3.244028,-0.974625 -2.928781,-1.364474 -2.397575,-1.671169 -0.944743,-0.908109 -0.775268,-0.946414 -0.605706,-0.977184 -0.436061,-1.000418 -0.266329,-1.016118 -0.09651,-1.024284 0.07339,-1.024915 0.243374,-1.018011 0.413445,-1.003573 0.583602,-0.981599 0.753843,-0.952092 0.924169,-0.91505 2.359657,-1.688834"
     style="fill:none;stroke:#000000;stroke-width:0.26458332" />
  <path
     id="path2029"
     d="m 52.570096,17.299784 2.679559,0.581516 2.39046,0.829983 2.064207,1.046122 1.7008,1.229932 1.30024,1.381412 0.862525,1.500563 0.387656,1.587385 -0.124365,1.641877 -0.643768,1.601398 -1.111886,1.470517 -1.529162,1.314167 -1.895594,1.132345 -2.211184,0.925051 -2.475929,0.692286 -2.689832,0.434051 -2.852892,0.150344 -2.852892,-0.150344 -2.689832,-0.434051 -2.47593,-0.692286 L 38.191094,32.617 36.2955,31.484656 l -1.529162,-1.314167 -1.111886,-1.470518 -0.643768,-1.601398 -0.124365,-1.641877 0.387657,-1.587385 0.862525,-1.500563 1.30024,-1.381411 1.7008,-1.229932 2.064207,-1.046122 2.39046,-0.829984 2.679559,-0.581515"
     style="fill:none;stroke:#000000;stroke-width:0.26458332" />
  <path
     id="path2031"
     d="m 60.432763,24.120585 -0.232937,1.350587 -0.681409,1.286371 -1.103783,1.186008 -1.500055,1.049498 -1.829477,0.860521 -2.067442,0.633195 -2.242394,0.390898 -2.354335,0.133626 -2.354335,-0.133626 -2.242394,-0.390898 -2.067442,-0.633195 -1.829477,-0.860521 -1.500055,-1.049498 -1.103783,-1.186008 -0.681409,-1.286371 -0.232937,-1.350587 0.232937,-1.350587 0.681409,-1.286371 1.103783,-1.186008 1.500055,-1.049498 1.829477,-0.860521 2.067442,-0.633195 2.242394,-0.390898 2.354335,-0.133626 2.354335,0.133626 2.242394,0.390898 2.067442,0.633195 1.829477,0.860521 1.500055,1.049498 1.103783,1.186008 0.681409,1.286371 0.232937,1.350587 v 0"
     style="fill:none;stroke:#000000;stroke-width:0.26458332" />
  <path
     id="path2033"
     d="m 56.597006,22.819096 -0.158553,0.919365 -0.463814,0.875651 -0.751309,0.807333 -1.021041,0.714409 -1.245267,0.585769 -1.407242,0.431026 -1.526327,0.26609 -1.602522,0.09096 -1.602522,-0.09096 -1.526327,-0.26609 -1.407242,-0.431026 -1.245267,-0.585769 -1.021041,-0.714409 -0.751309,-0.807333 -0.463814,-0.875651 -0.158553,-0.919365 0.158552,-0.919365 0.463814,-0.875651 0.75131,-0.807333 1.021041,-0.714409 1.245267,-0.585769 1.407242,-0.431026 1.526327,-0.26609 1.602522,-0.09096 1.602522,0.09096 1.526327,0.26609 1.407242,0.431026 1.245267,0.585769 1.021041,0.714409 0.751309,0.807333 0.463814,0.875651 0.158553,0.919365 v 0"
     style="fill:none;stroke:#000000;stroke-width:0.26458332" />
  <path
     id="path2035"
     d="m 52.559926,22.02516 -0.08409,0.478651 -0.241173,0.445818 -0.887021,0.754931 -1.315627,0.508988 -1.611084,0.186642 -1.611084,-0.186642 -1.315627,-0.508988 -0.887021,-0.754931 -0.241173,-0.445818 -0.08409,-0.478651 0.08409,-0.478651 0.241173,-0.445818 0.887021,-0.754931 1.315627,-0.508988 1.611084,-0.186642 1.611084,0.186642 1.315627,0.508988 0.887021,0.754931 0.241173,0.445818 0.08409,0.478651 v 0"
     style="fill:none;stroke:#000000;stroke-width:0.26458332" />
  <path
     style="fill:none;stroke:#000000;stroke-width:0.26458332"
     d="m 74.879266,43.431724 -0.129469,2.615081 -0.383618,2.570788 -0.630579,2.509145 -0.870355,2.430152 -1.102943,2.333811 -1.328347,2.22012 -1.546563,2.08908 -1.757593,1.94069 -1.94069,1.757593 -2.08908,1.546563 -2.22012,1.328347 -2.333811,1.102943 -2.430152,0.870355 -2.509145,0.630579 -2.570788,0.383618 -2.615081,0.129469 -2.705211,-0.136601 -2.627066,-0.400938 -2.535622,-0.651975 -2.430879,-0.889713 -2.312835,-1.114151 -2.181493,-1.32529 -2.036851,-1.523129 -1.87891,-1.70767 -1.70767,-1.87891 -1.523129,-2.036851 -1.32529,-2.181493 -1.114151,-2.312835 -0.889713,-2.430879 -0.651975,-2.535622 -0.400938,-2.627066 -0.136601,-2.705211 0.129469,-2.615081 0.383618,-2.570788 0.630579,-2.509145 0.870355,-2.430152 1.102943,-2.333811 1.328347,-2.22012 1.546563,-2.08908 1.757593,-1.94069 1.94069,-1.757593 2.08908,-1.546563 2.22012,-1.328347 2.333811,-1.102943 2.430152,-0.870355 2.509145,-0.630579 2.570788,-0.383618 2.615081,-0.129469 2.615081,0.129469 2.570788,0.383618 2.509145,0.630579 2.430152,0.870355 2.333811,1.102943 2.22012,1.328347 2.08908,1.546563 1.94069,1.757593 1.757593,1.94069 1.546563,2.08908 1.328347,2.22012 1.102943,2.333811 0.870355,2.430152 0.630579,2.509145 0.383618,2.570788 0.129469,2.615081 v 0"
     id="path2039" />
</svg>
